# AST/ASF file generated using VICON BodyLanguage
# -----------------------------------------------
:version 1.10
:name VICON
:units
  mass 1.0
  length 0.45
  angle deg
:documentation
   .ast/.asf automatically generated from VICON data using
   VICON BodyBuilder and BodyLanguage model FoxedUp or BRILLIANT.MOD
:root
   order TX TY TZ RX RY RZ
   axis XYZ
   position 0 0 0  
   orientation 0 0 0 
:bonedata
  begin
     id 1 
     name lhipjoint
     direction 0.677091 -0.635792 0.370561 
     length 2.74323 
     axis 0 0 0  XYZ
  end
  begin
     id 2 
     name lfemur
     direction 0.34202 -0.939693 0  
     length 7.44995  
     axis 0 0 20  XYZ
    dof rx ry rz
    limits (-160.0 20.0)
           (-70.0 70.0)
           (-60.0 70.0)
  end
  begin
     id 3 
     name ltibia
     direction 0.34202 -0.939693 0   
     length 7.34467   
     axis 0 0 20   XYZ
    dof rx
    limits (-10.0 170.0)
  end
  begin
     id 4 
     name lfoot
     direction 0.101953 -0.280114 0.954537   
     length 1.72105   
     axis -90 7.62852e-016 20   XYZ
    dof rx rz
    limits (-45.0 90.0)
           (-70.0 20.0)
  end
  begin
     id 5 
     name ltoes
     direction 1.53537e-011 -4.21915e-011 1   
     length 0.865872   
     axis -90 7.62852e-016 20   XYZ
    dof rx
    limits (-90.0 20.0)
  end
  begin
     id 6 
     name rhipjoint
     direction -0.695735 -0.620586 0.361699   
     length 2.81045  
     axis 0 0 0  XYZ 
  end
  begin
     id 7 
     name rfemur
     direction -0.34202 -0.939693 0   
     length 7.29387   
     axis 0 0 -20   XYZ
    dof rx ry rz
    limits (-160.0 20.0)
           (-70.0 70.0)
           (-70.0 60.0)
  end
  begin
     id 8 
     name rtibia
     direction -0.34202 -0.939693 0   
     length 7.44935   
     axis 0 0 -20   XYZ
    dof rx
    limits (-10.0 170.0)
 end
 begin
     id 9 
     name rfoot
     direction -0.104163 -0.286184 0.952496   
     length 1.77731  
     axis -90 -7.62852e-016 -20   XYZ
    dof rx rz
    limits (-45.0 90.0)
           (-20.0 70.0)
  end
  begin
     id 10 
     name rtoes
     direction -1.5355e-011 -4.21888e-011 1   
     length 0.892424   
     axis -90 -7.62852e-016 -20   XYZ
    dof rx
    limits (-90.0 20.0)
  end
  begin
     id 11 
     name lowerback
     direction 0.0100202 0.997226 -0.0737589   
     length 2.16892   
     axis 0 0 0   XYZ
    dof rx ry rz
    limits (-20.0 45.0)
           (-30.0 30.0)
           (-30.0 30.0)
  end
  begin
     id 12 
     name upperback
     direction 0.00432398 0.999988 -0.00215019   
     length 2.17326   
     axis 0 0 0   XYZ
    dof rx ry rz
    limits (-20.0 45.0)
           (-30.0 30.0)
           (-30.0 30.0)
  end
  begin
     id 13 
     name thorax
     direction -0.00195047 0.999485 0.0320434   
     length 2.18139   
     axis 0 0 0   XYZ
    dof rx ry rz
    limits (-20.0 45.0)
           (-30.0 30.0)
           (-30.0 30.0)
  end
  begin
     id 14 
     name lowerneck
     direction 0.00782762 0.986241 0.165128   
     length 1.88415   
     axis 0 0 0   XYZ
    dof rx ry rz
    limits (-20.0 45.0)
           (-30.0 30.0)
           (-30.0 30.0)
  end
  begin
     id 15 
     name upperneck
     direction 0.00988667 0.981098 -0.193258   
     length 1.9242   
     axis 0 0 0   XYZ
    dof rx ry rz
    limits (-20.0 45.0)
           (-30.0 30.0)
           (-30.0 30.0)
  end
  begin
     id 16
     name head
     direction 0.00252199 0.996513 -0.0833958  
     length 1.93887  
     axis 0 0 0   XYZ
    dof rx ry rz
    limits (-20.0 45.0)
           (-30.0 30.0)
           (-30.0 30.0)
  end
  begin
     id 17 
     name lclavicle
     direction 0.929492 0.368193 -0.0218667  
     length 3.5955  
     axis 0 0 0   XYZ
    dof ry rz
    limits (-20.0 10.0)
           (0.0 20.0)
  end
  begin
     id 18 
     name lhumerus
     direction 1 -4.48972e-011 1.41911e-027   
     length 5.2795   
     axis 180 -30 -90   XYZ
    dof rx ry rz
    limits (-60.0 90.0)
           (-90.0 90.0)
           (-90.0 90.0)
  end
  begin
     id 19
     name lradius
     direction 1 -4.48963e-011 7.05772e-027   
     length 3.53504   
     axis 180 -30 -90   XYZ
    dof rx
    limits (-10.0 170.0)
  end
  begin
     id 20
     name lwrist
     direction 1 -4.48957e-011 9.54866e-027   
     length 1.76752   
     axis -7.69462e-015 90 90   XYZ
    dof ry
    limits (-180.0 0.0)
 end
  begin
     id 21 
     name lhand
     direction 1 -4.48979e-011 1.90973e-026   
     length 0.667948   
     axis -1.21857e-014 90 90   XYZ
    dof rx rz
    limits (-90.0 90.0)
           (-45.0 45.0)
  end
  begin
     id 22 
     name lfingers
     direction 1 -4.48987e-011 3.81946e-026   
     length 0.538517   
     axis -2.43714e-014 90 90   XYZ
    dof rx
    limits (0.0 90.0)
  end
  begin
     id 23
     name lthumb
     direction 0.707107 -6.34962e-011 0.707107   
     length 0.773206   
     axis -90 45 2.85299e-015   XYZ
    dof rx rz
    limits (-45.0 45.0)
           (-45.0 45.0)
  end
  begin
     id 24 
     name rclavicle
     direction -0.898763 0.414256 -0.143584   
     length 3.5176  
     axis 0 0 0   XYZ 
    dof ry rz
    limits (-10.0 20.0)
           (-20.0 0.0)
  end
  begin
     id 25 
     name rhumerus
     direction -1 -4.48971e-011 1.129e-027  
     length 5.25035   
     axis 180 30 90   XYZ
    dof rx ry rz
    limits (-90.0 60.0)
           (-90.0 90.0)
           (-90.0 90.0)
  end
  begin
     id 26 
     name rradius
     direction -1 -4.48955e-011 6.34664e-027   
     length 3.58884   
     axis 180 30 90   XYZ
    dof rx
    limits (-10.0 170.0)
  end
  begin
     id 27 
     name rwrist
     direction -1 -4.48966e-011 9.54866e-027   
     length 1.79442   
     axis -7.69462e-015 -90 -90   XYZ
    dof ry
    limits (-180.0 0.0)
  end
  begin
     id 28
     name rhand
     direction -1 -4.48973e-011 1.90973e-026   
     length 0.779235   
     axis -1.21857e-014 -90 -90   XYZ
    dof rx rz
    limits (-90.0 90.0)
           (-45.0 45.0)
  end
  begin
     id 29
     name rfingers
     direction -1 -4.48984e-011 3.81946e-026   
     length 0.62824   
     axis -2.43714e-014 -90 -90   XYZ
    dof rx
    limits (0.0 90.0)
  end
  begin
     id 30
     name rthumb
     direction -0.707107 -6.34968e-011 0.707107   
     length 0.90203   
     axis -90 -45 -2.85299e-015   XYZ
    dof rx rz
    limits (-45.0 45.0)
           (-45.0 45.0)
  end
:hierarchy
  begin
    root lhipjoint rhipjoint lowerback
    lhipjoint lfemur
    lfemur ltibia
    ltibia lfoot
    lfoot ltoes
    rhipjoint rfemur
    rfemur rtibia
    rtibia rfoot
    rfoot rtoes
    lowerback upperback
    upperback thorax
    thorax lowerneck lclavicle rclavicle
    lowerneck upperneck
    upperneck head
    lclavicle lhumerus
    lhumerus lradius
    lradius lwrist
    lwrist lhand lthumb
    lhand lfingers
    rclavicle rhumerus
    rhumerus rradius
    rradius rwrist
    rwrist rhand rthumb
    rhand rfingers
  end

#!OML:ASF I:\Random Stuff\random\construction\7_22_03\Session 2\subj1.ASF
:FULLY-SPECIFIED
:DEGREES
314
root -9.82233 17.7605 -6.22178 -178.74 104.967 -196.495
lowerback 12.6657 1.66239 -4.01064
upperback 5.13067 1.85519 -2.92071
thorax -1.73312 0.994876 -1.04399
lowerneck -18.6635 4.57639 3.94177
upperneck 38.6879 8.47811 -3.4441
head 17.8247 3.82466 -0.446696
rclavicle 1.66979e-014 -3.33958e-014
rhumerus -30.4743 37.1859 -98.7464
rradius 73.6907
rwrist -6.19221
rhand -46.7233 37.1628
rfingers 7.12502
rthumb -19.4412 8.11475
lclavicle 1.66979e-014 -3.33958e-014
lhumerus 5.1729 -28.9651 88.0118
lradius 48.031
lwrist -0.803136
lhand -31.9808 43.2292
lfingers 7.12502
lthumb -5.23017 73.1447
rfemur -19.1566 6.87989 13.8029
rtibia 7.25564e-015
rfoot 3.46264 -7.65144
rtoes -25.5128
lfemur -29.8165 -1.86311 -10.2314
ltibia 26.3448
lfoot -16.1057 13.7035
ltoes -27.0291
315
root -9.82138 17.7593 -6.22405 -178.757 104.796 -196.484
lowerback 12.717 1.594 -3.95939
upperback 5.13824 1.76948 -2.93085
thorax -1.75036 0.953739 -1.07267
lowerneck -18.6621 4.59446 3.93293
upperneck 38.7199 8.50972 -3.42761
head 17.8425 3.83823 -0.430731
rclavicle -3.97569e-014 9.54166e-015
rhumerus -30.6236 37.092 -98.8871
rradius 74.0019
rwrist -6.23907
rhand -46.7939 37.1953
rfingers 7.12502
rthumb -19.5091 8.15406
lclavicle -3.97569e-014 9.54166e-015
lhumerus 5.17964 -28.8883 88.026
lradius 48.0356
lwrist -0.859402
lhand -31.9352 43.2763
lfingers 7.12502
lthumb -5.18619 73.1929
rfemur -19.0803 6.71529 13.8019
rtibia -2.78299e-014
rfoot 3.46333 -7.65897
rtoes -25.9384
lfemur -29.8049 -2.06584 -10.2388
ltibia 26.2826
lfoot -16.0916 13.7182
ltoes -26.7599
316
root -9.82198 17.7607 -6.22524 -178.451 104.775 -196.183
lowerback 12.6924 1.59025 -4.02272
upperback 5.14706 1.75949 -2.96026
thorax -1.72822 0.948589 -1.06551
lowerneck -18.6723 4.59095 3.91194
upperneck 38.7359 8.51098 -3.41741
head 17.8522 3.83678 -0.421716
rclavicle -4.21423e-014 3.97569e-014
rhumerus -30.6542 36.9462 -98.9644
rradius 74.2704
rwrist -6.36101
rhand -46.7488 37.1251
rfingers 7.12502
rthumb -19.4658 8.07944
lclavicle -4.21423e-014 3.97569e-014
lhumerus 5.19676 -28.8574 88.0376
lradius 48.0598
lwrist -0.804855
lhand -31.9604 43.353
lfingers 7.12502
lthumb -5.21048 73.269
rfemur -19.0967 6.68952 13.7094
rtibia -1.89839e-014
rfoot 3.49568 -7.64418
rtoes -26.0882
lfemur -29.8047 -2.07424 -10.3339
ltibia 26.2416
lfoot -16.0619 13.7045
ltoes -26.7713
317
root -9.82265 17.7622 -6.22537 -178.271 104.764 -196.007
lowerback 12.6676 1.59081 -4.06124
upperback 5.15628 1.7581 -2.97872
thorax -1.7054 0.947693 -1.06201
lowerneck -18.6682 4.59283 3.88725
upperneck 38.7247 8.52423 -3.4217
head 17.8444 3.83796 -0.416845
rclavicle -1.98785e-014 9.54166e-015
rhumerus -30.6284 36.7761 -99.0138
rradius 74.4686
rwrist -6.34686
rhand -46.7108 36.9619
rfingers 7.12502
rthumb -19.4293 7.91259
lclavicle -1.98785e-014 9.54166e-015
lhumerus 5.23788 -28.8584 88.0355
lradius 48.0283
lwrist -0.605937
lhand -31.6513 43.0996
lfingers 7.12502
lthumb -4.91202 73.0227
rfemur -19.1045 6.67847 13.6559
rtibia -1.42131e-014
rfoot 3.47302 -7.64376
rtoes -25.6969
lfemur -29.8168 -2.02623 -10.4008
ltibia 26.2339
lfoot -16.029 13.6736
ltoes -26.979
318
root -9.82325 17.7616 -6.22263 -178.579 104.802 -196.297
lowerback 12.6973 1.60369 -4.01916
upperback 5.15244 1.77771 -2.96299
thorax -1.72524 0.957726 -1.07298
lowerneck -18.6515 4.59911 3.85925
upperneck 38.7177 8.539 -3.40701
head 17.834 3.84235 -0.402749
rclavicle -1.98785e-014 7.95139e-015
rhumerus -30.6025 36.647 -99.0804
rradius 74.5567
rwrist -6.27253
rhand -46.8155 36.8125
rfingers 7.12502
rthumb -19.5299 7.77343
lclavicle -1.98785e-014 7.95139e-015
lhumerus 5.25099 -28.8772 88.0011
lradius 47.9935
lwrist -0.415124
lhand -30.7931 42.853
lfingers 7.12502
lthumb -4.08337 72.7936
rfemur -19.0825 6.7328 13.7472
rtibia -4.42296e-014
rfoot 3.44104 -7.65868
rtoes -25.2462
lfemur -29.7957 -1.99114 -10.3036
ltibia 26.2565
lfoot -16.0266 13.6817
ltoes -27.0355
